<?xml version="1.0" encoding="UTF-8"?><svg id="Layer_2" xmlns="http://www.w3.org/2000/svg" viewBox="0 0 223.45 59.2"><defs><style>.cls-1{fill:#e54c3c;}.cls-2{fill:#861a4e;}.cls-3{fill:#ac1e5c;}.cls-4{fill:#231f20;}</style></defs><g id="Layer_1-2"><g><g><g><path class="cls-2" d="M86.44,13.11c2.95,0,5.35,.91,7.18,2.74,1.83,1.83,2.76,4.01,2.76,6.53s-.93,4.76-2.76,6.64c-1.87,1.88-4.27,2.8-7.18,2.8h-16.08v8.49h-7.44V13.11h23.52Zm-16.08,12.67h15.17c1.03,0,1.88-.32,2.54-.99,.65-.67,.97-1.47,.97-2.35s-.32-1.66-.97-2.31c-.62-.65-1.44-.97-2.48-.97h-15.24v6.62Z"/><path class="cls-2" d="M136.1,13.11v27.2h-7.41v-10.97h-19.94v10.97h-7.41V13.11h7.41v10.17h19.94V13.11h7.41Z"/><path class="cls-1" d="M169.85,24.46l-2.03,6.06h-17.83v9.79h-7.44V13.11h30.8l-2.03,6.06h-21.34v5.3h19.85Z"/><path class="cls-2" d="M185.3,13.11v27.2h-7.41V13.11h7.41Z"/><path class="cls-2" d="M221.45,40.31h-20.45c-3.04,0-5.48-.91-7.35-2.74-1.83-1.83-2.74-3.92-2.74-6.32v-9.1c0-2.46,.91-4.57,2.72-6.36,1.83-1.79,4.29-2.69,7.37-2.69h22.46l-2,5.97h-18.56c-1.29,0-2.39,.39-3.28,1.14-.84,.75-1.25,1.75-1.25,2.97v6.9c0,1.23,.43,2.22,1.27,2.95,.86,.73,1.94,1.1,3.25,1.12h20.56l-2,6.14Z"/></g><g><g><path class="cls-3" d="M22.87,45.75C10.26,45.75,0,35.49,0,22.87H2.19c0,11.4,9.28,20.68,20.68,20.68v2.19Z"/><path class="cls-1" d="M22.87,45.75v-2.19c11.4,0,20.68-9.28,20.68-20.68h2.19c0,12.61-10.26,22.87-22.87,22.87Z"/><path class="cls-3" d="M45.75,22.87h-2.19c0-11.4-9.28-20.68-20.68-20.68V0c12.61,0,22.87,10.26,22.87,22.87Z"/><path class="cls-1" d="M2.19,22.87H0C0,10.26,10.26,0,22.87,0V2.19C11.47,2.19,2.19,11.47,2.19,22.87Z"/></g><g><path class="cls-2" d="M27.52,26.34c1.38-1.42,2.63-3.05,3.09-4.97,.46-1.92-.06-4.17-1.66-5.33,0,.75,0,1.49-.1,2.23-.31,2.09-1.5,3.95-2.89,5.55-1.39,1.6-2.99,2.99-4.37,4.6-.91,1.07-1.74,2.28-2.04,3.65-.08,.35-.11,.71-.11,1.07-.58-.49-1.08-1.08-1.54-1.68-.96-1.26-1.84-2.65-2.15-4.2-.49-2.43,.46-4.92,1.73-7.05,1.55-2.6,3.58-4.89,5.14-7.48,.51-.85,.98-1.77,1.01-2.75,.03-1.31-.72-2.5-1.45-3.59-.26,1.53-1.2,3.32-1.52,3.88-.68,1.2-1.48,2.35-2.34,3.42-2.88,3.62-5.81,7.68-5.52,12.53,.23,3.82,2.27,7.5,5.57,9.51,.86,.52,1.78,.92,2.75,1.19,.39,.16,.81,.25,1.24,.28,.02,0,.03,0,.05,0,0,0,0,0,0,0,.16,0,.32,0,.49,0-.51-1.27-1.04-2.62-.82-3.98,.16-.98,.7-1.86,1.31-2.64,.91-1.16,2-2.17,3.07-3.2,.36-.34,.71-.69,1.06-1.05Z"/><path class="cls-2" d="M31.92,24.75c-.25,1.31-1.06,2.63-1.99,3.57-.55,.56-1.11,1.11-1.66,1.67-.84,.84-1.85,1.71-2.24,2.87-.24,.72-.21,1.51-.01,2.24,.09,.35,.22,.68,.37,1.01,.08,.18,.16,.36,.25,.54,.05,.11,.29,.45,.27,.56,.17-.92,.53-1.85,1.1-2.59,.2-.27,.44-.51,.67-.75,.45-.47,.9-.93,1.37-1.38,1.05-1.02,2.5-2.16,2.84-3.66,.02-.1,.04-.19,.05-.29,.03-.16,.04-.32,.04-.48,.01-1.12-.48-2.15-1.05-3.3Z"/></g></g></g><g><path class="cls-4" d="M7.72,51.62h2.64c1.3,0,2.27,.83,2.27,2.01s-.97,2.01-2.27,2.01h-1.54v2.04h-1.1v-6.07Zm2.52,3.01c.75,0,1.27-.38,1.27-1s-.52-1-1.27-1h-1.41v2h1.41Z"/><path class="cls-4" d="M17.68,53.12v4.57h-1.08v-.61c-.28,.42-.81,.72-1.41,.72-1,0-1.7-.73-1.7-1.77v-2.91h1.04v2.69c0,.62,.4,1.06,.96,1.06s1.03-.38,1.1-.87v-2.89h1.08Z"/><path class="cls-4" d="M23.76,55.4c0,1.4-.88,2.39-2.09,2.39-.68,0-1.23-.31-1.59-.83v.72h-1.08v-6.17h1.08v2.33c.36-.52,.91-.83,1.59-.83,1.21,0,2.09,.99,2.09,2.39Zm-1.07,0c0-.86-.55-1.47-1.32-1.47s-1.29,.61-1.29,1.47,.53,1.47,1.29,1.47,1.32-.62,1.32-1.47Z"/><path class="cls-4" d="M24.87,51.51h1.08v6.17h-1.08v-6.17Z"/><path class="cls-4" d="M27.18,51.81c0-.33,.27-.61,.62-.61s.61,.28,.61,.61-.27,.62-.61,.62-.62-.29-.62-.62Zm.07,1.31h1.08v4.57h-1.08v-4.57Z"/><path class="cls-4" d="M29.36,55.4c0-1.3,1.12-2.39,2.46-2.39,.69,0,1.3,.29,1.73,.74l-.72,.64c-.25-.27-.63-.46-1.02-.46-.75,0-1.38,.67-1.38,1.47s.63,1.47,1.38,1.47c.4,0,.79-.19,1.04-.48l.72,.63c-.44,.47-1.05,.77-1.78,.77-1.32,0-2.44-1.09-2.44-2.39Z"/><path class="cls-4" d="M42.2,51.62v6.07h-1.1v-2.59h-3.03v2.59h-1.1v-6.07h1.1v2.47h3.03v-2.47h1.1Z"/><path class="cls-4" d="M46.91,56.38l.68,.71c-.4,.42-1.19,.71-1.86,.71-1.31,0-2.39-1-2.39-2.4s1.02-2.38,2.32-2.38c1.41,0,2.23,1.07,2.23,2.76h-3.44c.13,.63,.61,1.07,1.26,1.07,.42,0,.93-.19,1.18-.46Zm-2.44-1.43h2.4c-.12-.57-.51-.98-1.16-.98-.6,0-1.09,.38-1.25,.98Z"/><path class="cls-4" d="M52.84,54.94v2.75h-1.05v-.55c-.34,.42-.91,.65-1.44,.65-.97,0-1.7-.57-1.7-1.46s.84-1.52,1.86-1.52c.42,0,.87,.09,1.28,.25v-.12c0-.53-.29-1.04-1.12-1.04-.43,0-.85,.15-1.24,.34l-.37-.75c.64-.32,1.25-.48,1.82-.48,1.21,0,1.96,.77,1.96,1.93Zm-1.05,1.32v-.51c-.34-.11-.72-.18-1.12-.18-.54,0-.97,.3-.97,.73s.38,.71,.89,.71,1.08-.27,1.2-.75Z"/><path class="cls-4" d="M54.14,51.51h1.08v6.17h-1.08v-6.17Z"/><path class="cls-4" d="M59.08,57.43c-.26,.22-.63,.36-.97,.36-.76,0-1.29-.55-1.29-1.32v-2.46h-.66v-.89h.66v-1.25h1.05v1.25h1.03v.89h-1.03v2.33c0,.31,.19,.53,.45,.53,.19,0,.35-.07,.45-.17l.31,.72Z"/><path class="cls-4" d="M64.17,54.78v2.91h-1.04v-2.69c0-.62-.4-1.06-.96-1.06-.61,0-1.11,.44-1.11,.99v2.76h-1.08v-6.17h1.08v2.23c.27-.44,.81-.73,1.42-.73,1,0,1.7,.73,1.7,1.77Z"/><path class="cls-1" d="M68.98,52.62v1.54h3.14v1.01h-3.14v2.52h-1.1v-6.07h4.57v1.01h-3.46Z"/><path class="cls-1" d="M78.75,51.62v6.07h-1.1v-2.59h-3.03v2.59h-1.1v-6.07h1.1v2.47h3.03v-2.47h1.1Z"/><path class="cls-1" d="M80.25,51.62h1.1v6.07h-1.1v-6.07Z"/><path class="cls-1" d="M86.53,57.68l-1.43-2.04h-1.17v2.04h-1.1v-6.07h2.64c1.3,0,2.27,.83,2.27,2.01,0,.92-.59,1.63-1.47,1.9l1.52,2.16h-1.25Zm-2.61-3.06h1.41c.75,0,1.27-.38,1.27-1s-.52-1-1.27-1h-1.41v2Z"/><path class="cls-1" d="M91.23,51.33c.28,.16,.5,.38,.66,.66,.16,.28,.24,.59,.24,.93s-.08,.66-.24,.93c-.16,.28-.38,.5-.66,.66-.28,.16-.59,.24-.93,.24s-.66-.08-.93-.24c-.28-.16-.5-.38-.66-.66-.16-.28-.24-.59-.24-.93s.08-.66,.24-.93c.16-.28,.38-.5,.66-.66,.28-.16,.59-.24,.94-.24s.65,.08,.93,.24Zm-.13,2.98c.24-.14,.43-.33,.56-.57,.14-.24,.21-.51,.21-.81s-.07-.56-.21-.81c-.14-.24-.33-.43-.56-.57-.24-.14-.51-.21-.8-.21s-.56,.07-.8,.21c-.24,.14-.43,.33-.57,.57-.14,.24-.21,.51-.21,.81s.07,.56,.21,.81c.14,.24,.33,.43,.57,.57,.24,.14,.51,.21,.8,.21s.56-.07,.8-.21Zm-.12-.93l.37,.64h-.52l-.39-.7c-.03-.06-.07-.09-.11-.12-.04-.02-.09-.03-.15-.03h-.22v.84h-.47v-2.17h.95c.25,0,.44,.06,.57,.17,.13,.12,.2,.28,.2,.48,0,.17-.05,.3-.14,.42-.09,.11-.23,.18-.4,.21,.14,.03,.24,.12,.31,.25Zm-.31-.63c.06-.05,.09-.13,.09-.23s-.03-.18-.09-.23c-.06-.05-.16-.08-.29-.08h-.43v.62h.43c.13,0,.22-.03,.28-.08Z"/><path class="cls-4" d="M94.4,51.62h1.1v6.07h-1.1v-6.07Z"/><path class="cls-4" d="M103.84,54.78v2.91h-1.05v-2.73c0-.6-.36-1.02-.88-1.02-.59,0-1,.4-1,.95v2.8h-1.05v-2.73c0-.6-.36-1.02-.89-1.02-.58,0-1,.4-1,.95v2.8h-1.08v-4.57h1.08v.62c.23-.44,.7-.72,1.27-.72,.64,0,1.17,.33,1.46,.87,.22-.53,.79-.87,1.47-.87,.95,0,1.67,.73,1.67,1.77Z"/><path class="cls-4" d="M109.92,55.4c0,1.4-.88,2.39-2.09,2.39-.68,0-1.23-.31-1.59-.83v2.24h-1.08v-6.09h1.08v.72c.36-.52,.91-.83,1.59-.83,1.21,0,2.09,.99,2.09,2.39Zm-1.07,0c0-.86-.55-1.47-1.32-1.47s-1.29,.61-1.29,1.47,.53,1.47,1.29,1.47,1.32-.62,1.32-1.47Z"/><path class="cls-4" d="M111.02,51.51h1.08v6.17h-1.08v-6.17Z"/><path class="cls-4" d="M116.73,56.38l.68,.71c-.4,.42-1.19,.71-1.86,.71-1.31,0-2.39-1-2.39-2.4s1.02-2.38,2.32-2.38c1.41,0,2.23,1.07,2.23,2.76h-3.44c.13,.63,.61,1.07,1.26,1.07,.42,0,.93-.19,1.18-.46Zm-2.44-1.43h2.4c-.12-.57-.51-.98-1.16-.98-.6,0-1.09,.38-1.25,.98Z"/><path class="cls-4" d="M125.72,54.78v2.91h-1.05v-2.73c0-.6-.36-1.02-.88-1.02-.59,0-1,.4-1,.95v2.8h-1.05v-2.73c0-.6-.36-1.02-.89-1.02-.58,0-1,.4-1,.95v2.8h-1.08v-4.57h1.08v.62c.23-.44,.7-.72,1.27-.72,.64,0,1.17,.33,1.46,.87,.22-.53,.79-.87,1.47-.87,.95,0,1.67,.73,1.67,1.77Z"/><path class="cls-4" d="M130.31,56.38l.68,.71c-.4,.42-1.19,.71-1.86,.71-1.31,0-2.39-1-2.39-2.4s1.02-2.38,2.32-2.38c1.41,0,2.23,1.07,2.23,2.76h-3.44c.13,.63,.61,1.07,1.26,1.07,.42,0,.93-.19,1.18-.46Zm-2.44-1.43h2.4c-.12-.57-.51-.98-1.16-.98-.6,0-1.09,.38-1.25,.98Z"/><path class="cls-4" d="M136.54,54.78v2.91h-1.04v-2.69c0-.62-.4-1.06-.96-1.06s-1.03,.38-1.1,.87v2.89h-1.08v-4.57h1.08v.61c.28-.42,.81-.72,1.41-.72,1,0,1.7,.73,1.7,1.77Z"/><path class="cls-4" d="M140.31,57.43c-.26,.22-.63,.36-.97,.36-.76,0-1.29-.55-1.29-1.32v-2.46h-.66v-.89h.66v-1.25h1.05v1.25h1.03v.89h-1.03v2.33c0,.31,.19,.53,.45,.53,.19,0,.35-.07,.45-.17l.31,.72Z"/><path class="cls-4" d="M145.09,54.94v2.75h-1.05v-.55c-.34,.42-.91,.65-1.44,.65-.97,0-1.7-.57-1.7-1.46s.84-1.52,1.86-1.52c.42,0,.87,.09,1.28,.25v-.12c0-.53-.29-1.04-1.12-1.04-.43,0-.85,.15-1.24,.34l-.37-.75c.64-.32,1.25-.48,1.82-.48,1.21,0,1.96,.77,1.96,1.93Zm-1.05,1.32v-.51c-.34-.11-.72-.18-1.12-.18-.54,0-.97,.3-.97,.73s.38,.71,.89,.71,1.08-.27,1.2-.75Z"/><path class="cls-4" d="M148.83,57.43c-.26,.22-.63,.36-.97,.36-.76,0-1.29-.55-1.29-1.32v-2.46h-.66v-.89h.66v-1.25h1.05v1.25h1.03v.89h-1.03v2.33c0,.31,.19,.53,.45,.53,.19,0,.35-.07,.45-.17l.31,.72Z"/><path class="cls-4" d="M149.65,51.81c0-.33,.27-.61,.62-.61s.61,.28,.61,.61-.27,.62-.61,.62-.62-.29-.62-.62Zm.07,1.31h1.08v4.57h-1.08v-4.57Z"/><path class="cls-4" d="M151.84,55.4c0-1.3,1.12-2.39,2.45-2.39s2.45,1.09,2.45,2.39-1.12,2.39-2.45,2.39-2.45-1.09-2.45-2.39Zm3.83,0c0-.8-.64-1.47-1.39-1.47s-1.4,.67-1.4,1.47,.64,1.47,1.4,1.47,1.39-.67,1.39-1.47Z"/><path class="cls-4" d="M161.97,54.78v2.91h-1.04v-2.69c0-.62-.4-1.06-.96-1.06s-1.03,.38-1.1,.87v2.89h-1.08v-4.57h1.08v.61c.28-.42,.81-.72,1.41-.72,1,0,1.7,.73,1.7,1.77Z"/><path class="cls-4" d="M165.44,54.65c0-1.7,1.46-3.14,3.19-3.14,.89,0,1.7,.38,2.29,.98l-.79,.73c-.37-.43-.92-.71-1.5-.71-1.12,0-2.07,.97-2.07,2.13s.95,2.14,2.07,2.14c.59,0,1.13-.27,1.51-.71l.78,.72c-.58,.61-1.4,.99-2.29,.99-1.73,0-3.19-1.44-3.19-3.14Z"/><path class="cls-4" d="M171.47,55.4c0-1.3,1.12-2.39,2.45-2.39s2.45,1.09,2.45,2.39-1.12,2.39-2.45,2.39-2.45-1.09-2.45-2.39Zm3.83,0c0-.8-.64-1.47-1.39-1.47s-1.4,.67-1.4,1.47,.64,1.47,1.4,1.47,1.39-.67,1.39-1.47Z"/><path class="cls-4" d="M177.41,51.51h1.08v6.17h-1.08v-6.17Z"/><path class="cls-4" d="M179.79,51.51h1.08v6.17h-1.08v-6.17Z"/><path class="cls-4" d="M186.1,54.94v2.75h-1.05v-.55c-.34,.42-.91,.65-1.44,.65-.97,0-1.7-.57-1.7-1.46s.84-1.52,1.86-1.52c.42,0,.87,.09,1.28,.25v-.12c0-.53-.29-1.04-1.12-1.04-.43,0-.85,.15-1.24,.34l-.37-.75c.64-.32,1.25-.48,1.82-.48,1.21,0,1.96,.77,1.96,1.93Zm-1.05,1.32v-.51c-.34-.11-.72-.18-1.12-.18-.54,0-.97,.3-.97,.73s.38,.71,.89,.71,1.08-.27,1.2-.75Z"/><path class="cls-4" d="M192.17,55.4c0,1.4-.88,2.39-2.09,2.39-.68,0-1.23-.31-1.59-.83v.72h-1.08v-6.17h1.08v2.33c.36-.52,.91-.83,1.59-.83,1.21,0,2.09,.99,2.09,2.39Zm-1.07,0c0-.86-.55-1.47-1.32-1.47s-1.29,.61-1.29,1.47,.53,1.47,1.29,1.47,1.32-.62,1.32-1.47Z"/><path class="cls-4" d="M193,55.4c0-1.3,1.12-2.39,2.45-2.39s2.45,1.09,2.45,2.39-1.12,2.39-2.45,2.39-2.45-1.09-2.45-2.39Zm3.83,0c0-.8-.64-1.47-1.39-1.47s-1.4,.67-1.4,1.47,.64,1.47,1.4,1.47,1.39-.67,1.39-1.47Z"/><path class="cls-4" d="M201.67,53.01v.92c-.98,0-1.63,.58-1.63,1.45v2.31h-1.08v-4.57h1.08v.88c.29-.61,.88-.99,1.63-.99Z"/><path class="cls-4" d="M206.36,54.94v2.75h-1.05v-.55c-.34,.42-.91,.65-1.44,.65-.97,0-1.7-.57-1.7-1.46s.84-1.52,1.86-1.52c.42,0,.87,.09,1.28,.25v-.12c0-.53-.29-1.04-1.12-1.04-.43,0-.85,.15-1.24,.34l-.37-.75c.64-.32,1.25-.48,1.82-.48,1.21,0,1.96,.77,1.96,1.93Zm-1.05,1.32v-.51c-.34-.11-.72-.18-1.12-.18-.54,0-.97,.3-.97,.73s.38,.71,.89,.71,1.08-.27,1.2-.75Z"/><path class="cls-4" d="M210.1,57.43c-.26,.22-.63,.36-.97,.36-.76,0-1.29-.55-1.29-1.32v-2.46h-.66v-.89h.66v-1.25h1.05v1.25h1.03v.89h-1.03v2.33c0,.31,.19,.53,.45,.53,.19,0,.35-.07,.45-.17l.31,.72Z"/><path class="cls-4" d="M210.93,51.81c0-.33,.27-.61,.62-.61s.61,.28,.61,.61-.27,.62-.61,.62-.62-.29-.62-.62Zm.07,1.31h1.08v4.57h-1.08v-4.57Z"/><path class="cls-4" d="M212.87,53.12h1.14l1.33,3.32,1.3-3.32h1.15l-1.93,4.57h-1.02l-1.96-4.57Z"/><path class="cls-4" d="M221.69,56.38l.68,.71c-.4,.42-1.19,.71-1.86,.71-1.31,0-2.39-1-2.39-2.4s1.02-2.38,2.32-2.38c1.41,0,2.23,1.07,2.23,2.76h-3.44c.13,.63,.61,1.07,1.26,1.07,.42,0,.93-.19,1.18-.46Zm-2.44-1.43h2.4c-.12-.57-.51-.98-1.16-.98-.6,0-1.09,.38-1.25,.98Z"/></g></g></g></svg>