<?xml version="1.0" encoding="UTF-8"?><svg id="Layer_2" xmlns="http://www.w3.org/2000/svg" viewBox="0 0 320.85 34.81"><defs><style>.cls-1{letter-spacing:-.02em;}.cls-2{letter-spacing:0em;}.cls-2,.cls-3,.cls-4,.cls-5,.cls-6,.cls-7,.cls-8,.cls-9,.cls-10,.cls-11,.cls-12,.cls-13,.cls-14,.cls-15,.cls-16{font-family:Metropolis-SemiBold, Metropolis;font-weight:600;}.cls-2,.cls-3,.cls-4,.cls-5,.cls-8,.cls-9,.cls-10,.cls-12,.cls-14,.cls-15,.cls-16{fill:#231f20;}.cls-17{letter-spacing:0em;}.cls-3{letter-spacing:.01em;}.cls-18{letter-spacing:.01em;}.cls-19,.cls-20,.cls-6,.cls-7,.cls-11,.cls-13{fill:#e54c3c;}.cls-21{fill:#861a4e;}.cls-22{letter-spacing:0em;}.cls-23{letter-spacing:.01em;}.cls-24{letter-spacing:0em;}.cls-25{letter-spacing:.01em;}.cls-26{letter-spacing:.01em;}.cls-27{letter-spacing:0em;}.cls-28{letter-spacing:0em;}.cls-4,.cls-29{letter-spacing:0em;}.cls-30{font-size:10.04px;}.cls-5{letter-spacing:0em;}.cls-20{font-family:IBMPlexSans-Medium, 'IBM Plex Sans';font-weight:500;}.cls-6{letter-spacing:.02em;}.cls-7{letter-spacing:.02em;}.cls-31{letter-spacing:0em;}.cls-32{letter-spacing:0em;}.cls-8,.cls-33{letter-spacing:.01em;}.cls-34{letter-spacing:.02em;}.cls-35{fill:none;stroke:#231f20;stroke-miterlimit:10;}.cls-36{letter-spacing:.01em;}.cls-10{letter-spacing:.01em;}.cls-11{letter-spacing:.01em;}.cls-12{letter-spacing:.02em;}.cls-13{letter-spacing:.02em;}.cls-37{letter-spacing:0em;}.cls-14{letter-spacing:.01em;}.cls-38{letter-spacing:.01em;}.cls-15{letter-spacing:0em;}.cls-16{letter-spacing:0em;}.cls-39{letter-spacing:0em;}</style></defs><g id="Layer_1-2"><g><g><path class="cls-21" d="M27.03,1.56c3.39,0,6.15,1.04,8.25,3.15,2.11,2.11,3.17,4.61,3.17,7.51s-1.07,5.48-3.17,7.63c-2.16,2.16-4.91,3.22-8.25,3.22H8.55v9.76H0V1.56H27.03ZM8.55,16.13H25.99c1.19,0,2.16-.37,2.92-1.14,.74-.77,1.12-1.69,1.12-2.7s-.37-1.91-1.12-2.65c-.72-.74-1.66-1.12-2.85-1.12H8.55v7.61Z"/><path class="cls-21" d="M84.11,1.56v31.27h-8.52v-12.61h-22.92v12.61h-8.52V1.56h8.52V13.25h22.92V1.56h8.52Z"/><path class="cls-19" d="M122.91,14.62l-2.33,6.96h-20.49v11.25h-8.55V1.56h35.41l-2.33,6.96h-24.53v6.1h22.82Z"/><path class="cls-21" d="M140.67,1.56v31.27h-8.52V1.56h8.52Z"/><path class="cls-21" d="M182.22,32.83h-23.51c-3.49,0-6.29-1.04-8.45-3.15-2.11-2.11-3.15-4.51-3.15-7.26V11.97c0-2.82,1.04-5.25,3.12-7.31,2.11-2.06,4.93-3.1,8.47-3.1h25.82l-2.3,6.86h-21.33c-1.49,0-2.75,.45-3.77,1.31-.97,.87-1.44,2.01-1.44,3.42v7.93c0,1.41,.5,2.55,1.46,3.39,.99,.84,2.23,1.26,3.74,1.29h23.64l-2.3,7.06Z"/></g><text class="cls-30" transform="translate(223.93 8.52)"><tspan class="cls-15" x="0" y="0">P</tspan><tspan class="cls-14" x="6.61" y="0">u</tspan><tspan class="cls-8" x="12.81" y="0">b</tspan><tspan class="cls-10" x="19.5" y="0">l</tspan><tspan class="cls-4" x="22.2" y="0">i</tspan><tspan class="cls-9" x="24.87" y="0">c </tspan><tspan class="cls-12" x="33.19" y="0">H</tspan><tspan class="cls-2" x="40.76" y="0">e</tspan><tspan class="cls-3" x="46.77" y="0">a</tspan><tspan class="cls-5" x="52.72" y="0">l</tspan><tspan class="cls-16" x="55.38" y="0">t</tspan><tspan class="cls-9" x="59.35" y="0">h </tspan><tspan class="cls-11" x="68.27" y="0">F</tspan><tspan class="cls-13" x="74.67" y="0">H</tspan><tspan class="cls-6" x="82.29" y="0">I</tspan><tspan class="cls-7" x="85.23" y="0">R</tspan><tspan class="cls-20" x="92.18" y="0">®</tspan><tspan class="cls-9"><tspan class="cls-34" x="0" y="11.71">I</tspan><tspan class="cls-38" x="2.89" y="11.71">m</tspan><tspan class="cls-33" x="12.24" y="11.71">p</tspan><tspan class="cls-18" x="18.92" y="11.71">l</tspan><tspan class="cls-26" x="21.63" y="11.71">eme</tspan><tspan x="43.13" y="11.71">n</tspan><tspan class="cls-28" x="49.21" y="11.71">t</tspan><tspan class="cls-37" x="53.09" y="11.71">a</tspan><tspan class="cls-24" x="58.88" y="11.71">t</tspan><tspan class="cls-29" x="62.83" y="11.71">i</tspan><tspan class="cls-25" x="65.49" y="11.71">o</tspan><tspan x="71.96" y="11.71">n</tspan></tspan><tspan class="cls-9"><tspan class="cls-31" x="0" y="23.42">C</tspan><tspan class="cls-36" x="6.9" y="23.42">o</tspan><tspan class="cls-26" x="13.37" y="23.42">l</tspan><tspan class="cls-39" x="16.07" y="23.42">l</tspan><tspan class="cls-25" x="18.74" y="23.42">a</tspan><tspan class="cls-23" x="24.67" y="23.42">bo</tspan><tspan class="cls-32" x="37.79" y="23.42">r</tspan><tspan class="cls-22" x="41.73" y="23.42">a</tspan><tspan class="cls-27" x="47.52" y="23.42">t</tspan><tspan class="cls-17" x="51.47" y="23.42">i</tspan><tspan class="cls-1" x="54.08" y="23.42">v</tspan><tspan x="59.84" y="23.42">e</tspan></tspan></text><line class="cls-35" x1="202.27" y1="1.56" x2="202.27" y2="32.83"/></g></g></svg>